<?xml version="1.0" encoding="utf-8"?><svg width="192" height="180" viewBox="0 0 192 180" xmlns="http://www.w3.org/2000/svg" xmlns:xlink="http://www.w3.org/1999/xlink"><svg width="73" height="64" viewBox="-5 -5 73 64" id="audit" xmlns="http://www.w3.org/2000/svg"><path d="M596.8 919.591h-1.156v-1.159a3.206 3.206 0 0 0-3.2-3.205h-10.881a3.2 3.2 0 0 0-3.2 3.205v1.159h-1.157a3.2 3.2 0 0 0-3.2 3.2v2.182a1.022 1.022 0 0 0 1.02 1.023h23.948a1.022 1.022 0 0 0 1.026-1.019V922.8a3.2 3.2 0 0 0-3.2-3.209Zm-16.4-1.159a1.159 1.159 0 0 1 1.157-1.159h10.885a1.159 1.159 0 0 1 1.157 1.159v1.159h-13.2v-1.159Zm17.553 5.522h-21.901V922.8a1.159 1.159 0 0 1 1.156-1.159H596.8a1.159 1.159 0 0 1 1.157 1.159v1.159Zm-21.907-26.381-.048.048a3.213 3.213 0 0 0 0 4.532 3.194 3.194 0 0 0 4.522 0l6.158-6.171a3.2 3.2 0 1 0-4.522-4.532l-.049.049-2.367-2.372a2.119 2.119 0 0 0-.534-2.079l-6.609-6.622a2.107 2.107 0 0 0-2.074-.536l-2.367-2.372.048-.048a3.2 3.2 0 1 0-4.522-4.532l-6.158 6.171a3.2 3.2 0 1 0 4.523 4.531l.048-.048 2.366 2.372a2.145 2.145 0 0 0-.082.584 2.1 2.1 0 0 0 .617 1.5l.274.274-2.116 2.12a3.2 3.2 0 0 0-.925 2.47l-24.3 24.35a3.2 3.2 0 1 0 4.522 4.532l24.3-24.35c.068 0 .135.009.2.009a3.182 3.182 0 0 0 2.261-.937l2.116-2.12.274.274a2.1 2.1 0 0 0 2.074.537Zm8.371-5.015a1.159 1.159 0 0 1 .817 1.978l-6.157 6.17a1.158 1.158 0 0 1-1.636-1.638l6.158-6.171a1.15 1.15 0 0 1 .824-.339Zm-6.928 3.569-2.18-2.185 3.175-3.181 2.18 2.184Zm-18.521-13.933a1.162 1.162 0 0 1 0-1.639l6.157-6.171a1.156 1.156 0 0 1 1.636 0 1.162 1.162 0 0 1 0 1.639l-6.158 6.171a1.155 1.155 0 0 1-1.629 0Zm7.745-3.23 2.18 2.185-3.175 3.182-2.18-2.185Zm-25.7 41.378a1.158 1.158 0 0 1-1.635-1.639l23.734-23.785.046.051 1.539 1.542c.016.017.034.031.051.046Zm26.763-25.277a1.155 1.155 0 0 1-1.635 0l-1.54-1.542a1.163 1.163 0 0 1 0-1.64l2.116-2.12 3.175 3.182Zm-1.333-8.469a.061.061 0 0 1-.019-.048.065.065 0 0 1 .019-.048l4.619-4.628a.068.068 0 0 1 .1 0l6.609 6.622a.07.07 0 0 1 0 .1l-4.619 4.628a.068.068 0 0 1-.1 0Z" transform="translate(-537 -872)" style="fill:#ffc222;fill-rule:evenodd"/></svg><svg width="67" height="64" viewBox="-5 -5 67 64" id="home" x="73" y="64" xmlns="http://www.w3.org/2000/svg"><path d="M982.076 900.513v-1.046h2.031a.923.923 0 0 0 .923-.923v-3.014h1.047a.923.923 0 0 0 .923-.923v-2.953a.926.926 0 0 0-.465-.8L958.958 875.1a.924.924 0 0 0-.916 0l-27.577 15.75a.923.923 0 0 0-.465.8v2.953a.923.923 0 0 0 .923.923h1.047v3.014a.923.923 0 0 0 .923.923h2.031v1.046a1.909 1.909 0 0 0 .985 1.668v17.1h-3.016a.924.924 0 0 0-.923.924v3.014h-1.047a.923.923 0 0 0-.923.923v3.938a.923.923 0 0 0 .923.923h55.154a.923.923 0 0 0 .923-.923v-3.938a.923.923 0 0 0-.923-.923h-1.047V920.2a.924.924 0 0 0-.923-.924h-3.016v-17.1a1.909 1.909 0 0 0 .985-1.663Zm-1.847 0a.062.062 0 0 1-.062.062h-3.939a.062.062 0 0 1-.062-.062v-1.046h4.063v1.046Zm-8.987 18.765v-17.1a1.909 1.909 0 0 0 .985-1.668v-1.046h2.093v1.046a1.907 1.907 0 0 0 .985 1.668v17.1h-4.063Zm-3.94 0V902.42h2.098v16.858h-2.1Zm-5.909 0v-17.1a1.907 1.907 0 0 0 .985-1.668v-1.046h2.093v1.046a1.907 1.907 0 0 0 .985 1.668v17.1h-4.063Zm-3.94 0V902.42h2.093v16.858h-2.093Zm-5.909 0v-17.1a1.907 1.907 0 0 0 .985-1.668v-1.046h2.093v1.046a1.907 1.907 0 0 0 .985 1.668v17.1h-4.063Zm-3.939 0V902.42h2.095v16.858h-2.093Zm-5.91 0v-17.1a1.907 1.907 0 0 0 .985-1.668v-1.046h2.093v1.046a1.907 1.907 0 0 0 .985 1.668v17.1H941.7Zm8.987-19.811v1.046a.061.061 0 0 1-.061.062h-3.94a.061.061 0 0 1-.061-.062v-1.046h4.062Zm9.849 0v1.046a.061.061 0 0 1-.061.062h-3.94a.061.061 0 0 1-.061-.062v-1.046h4.062Zm9.849 0v1.046a.062.062 0 0 1-.061.062h-3.94a.062.062 0 0 1-.062-.062v-1.046h4.063Zm-38.533-7.278 26.653-15.223 26.653 15.223v1.5h-53.306v-1.5Zm1.969 3.341h49.368v2.092h-49.368v-2.092Zm7.018 3.937v1.046a.062.062 0 0 1-.062.062h-3.939a.062.062 0 0 1-.062-.062v-1.046h4.063Zm-3.078 2.953h2.093v16.858h-2.093V902.42Zm47.4 24.734h-53.309v-2.092h53.306v2.092Zm-1.969-3.938h-49.371v-2.092h49.368v2.092Zm-6.033-3.938V902.42h2.093v16.858h-2.093Z" transform="translate(-930 -875)" style="fill:#ffc222;fill-rule:evenodd"/></svg><svg width="26" height="26" viewBox="-5 -5 26 26" id="location" x="140" y="128" xmlns="http://www.w3.org/2000/svg"><path fill="#ffc222" d="M8 0a5 5 0 0 0-5 5c0 5 5 11 5 11s5-6 5-11a5 5 0 0 0-5-5zm0 8.063a3.063 3.063 0 1 1 0-6.126 3.063 3.063 0 0 1 0 6.126zM6.063 5a1.938 1.938 0 1 1 3.876 0 1.938 1.938 0 0 1-3.876 0z"/></svg><svg width="26" height="26" viewBox="-5 -5 26 26" id="mail" x="166" y="154" xmlns="http://www.w3.org/2000/svg"><path fill="#ffc222" d="M13.333 0H2.667A2.675 2.675 0 0 0 0 2.667v10.666C0 14.801 1.2 16 2.667 16h10.666A2.674 2.674 0 0 0 16 13.333V2.667C16 1.2 14.8 0 13.333 0zm0 2c.125 0 .243.036.344.099L7.999 6.793 2.322 2.099A.648.648 0 0 1 2.666 2h10.666zM2.667 14a.654.654 0 0 1-.089-.006l3.525-4.89-.457-.457L2 12.293V2.744L8 10l6-7.256v9.549l-3.646-3.646-.457.457 3.525 4.89a.65.65 0 0 1-.088.006H2.668z"/></svg></svg>