<?xml version="1.0" encoding="utf-8"?><svg width="78" height="78" viewBox="0 0 78 78" xmlns="http://www.w3.org/2000/svg" xmlns:xlink="http://www.w3.org/1999/xlink"><svg width="26" height="26" viewBox="-5 -5 26 26" id="location" xmlns="http://www.w3.org/2000/svg"><path fill="#ffc222" d="M8 0a5 5 0 0 0-5 5c0 5 5 11 5 11s5-6 5-11a5 5 0 0 0-5-5zm0 8.063a3.063 3.063 0 1 1 0-6.126 3.063 3.063 0 0 1 0 6.126zM6.063 5a1.938 1.938 0 1 1 3.876 0 1.938 1.938 0 0 1-3.876 0z"/></svg><svg width="26" height="26" viewBox="-5 -5 26 26" id="mail" x="26" y="26" xmlns="http://www.w3.org/2000/svg"><path fill="#ffc222" d="M13.333 0H2.667A2.675 2.675 0 0 0 0 2.667v10.666C0 14.801 1.2 16 2.667 16h10.666A2.674 2.674 0 0 0 16 13.333V2.667C16 1.2 14.8 0 13.333 0zm0 2c.125 0 .243.036.344.099L7.999 6.793 2.322 2.099A.648.648 0 0 1 2.666 2h10.666zM2.667 14a.654.654 0 0 1-.089-.006l3.525-4.89-.457-.457L2 12.293V2.744L8 10l6-7.256v9.549l-3.646-3.646-.457.457 3.525 4.89a.65.65 0 0 1-.088.006H2.668z"/></svg><svg width="26" height="26" viewBox="-5 -5 26 26" id="phone" x="52" y="52" xmlns="http://www.w3.org/2000/svg"><path fill="#ffc222" d="M11 10c-1 1-1 2-2 2s-2-1-3-2-2-2-2-3 1-1 2-2-2-4-3-4-3 3-3 3c0 2 2.055 6.055 4 8s6 4 8 4c0 0 3-2 3-3s-3-4-4-3z"/></svg></svg>