<?xml version="1.0" encoding="utf-8"?><svg width="99" height="99" viewBox="0 0 99 99" xmlns="http://www.w3.org/2000/svg" xmlns:xlink="http://www.w3.org/1999/xlink"><svg width="33" height="33" fill="none" viewBox="-5 -5 33 33" id="facebook" xmlns="http://www.w3.org/2000/svg"><g clip-path="url(#aa)"><path d="M2.738 0A2.746 2.746 0 0 0 0 2.737v17.518a2.746 2.746 0 0 0 2.738 2.738h9.218c.059.01.12.01.178 0h3.107c.06.01.12.01.179 0h4.842A2.746 2.746 0 0 0 23 20.255V2.737A2.746 2.746 0 0 0 20.262 0H2.738Zm0 1.095h17.524c.914 0 1.643.729 1.643 1.642v17.518c0 .914-.73 1.643-1.643 1.643H15.88v-7.664h2.092l.767-3.833H15.88V9.307c0-.306.029-.33.131-.396.103-.067.42-.152.964-.152h1.643V5.677l-.312-.15s-1.258-.6-2.974-.6c-1.232 0-2.244.49-2.892 1.3-.648.81-.941 1.893-.941 3.08V10.4H9.857v3.833H11.5v7.664H2.738a1.635 1.635 0 0 1-1.643-1.643V2.737c0-.913.73-1.642 1.643-1.642Zm12.595 4.927c1.139 0 1.855.25 2.19.384v1.258h-.547c-.63 0-1.135.052-1.56.328-.426.277-.63.8-.63 1.315v2.19h2.617l-.328 1.642h-2.29v8.759h-2.19v-8.76h-1.643v-1.642h1.643v-2.19c0-1.003.254-1.835.702-2.395.447-.559 1.078-.89 2.036-.89Z" fill="#E4E4E4"/></g><defs><clipPath id="aa"><path fill="#fff" d="M0 0h23v23H0z"/></clipPath></defs></svg><svg width="33" height="33" fill="none" viewBox="-5 -5 33 33" id="instagram" x="33" y="33" xmlns="http://www.w3.org/2000/svg"><g clip-path="url(#ba)"><path d="M6.795 0A6.804 6.804 0 0 0 0 6.795v9.41A6.804 6.804 0 0 0 6.795 23h9.41A6.804 6.804 0 0 0 23 16.204V6.795A6.804 6.804 0 0 0 16.204 0H6.795Zm0 1.045h9.41a5.742 5.742 0 0 1 5.75 5.75v9.41a5.742 5.742 0 0 1-5.75 5.75h-9.41a5.742 5.742 0 0 1-5.75-5.75v-9.41a5.742 5.742 0 0 1 5.75-5.75Zm10.978 3.137a1.045 1.045 0 1 0 0 2.09 1.045 1.045 0 0 0 0-2.09ZM11.5 5.75c-3.17 0-5.75 2.58-5.75 5.75s2.58 5.75 5.75 5.75 5.75-2.58 5.75-5.75-2.58-5.75-5.75-5.75Zm0 1.045c2.604 0 4.704 2.1 4.704 4.705 0 2.604-2.1 4.704-4.704 4.704A4.697 4.697 0 0 1 6.795 11.5c0-2.604 2.1-4.705 4.705-4.705Z" fill="#E4E4E4"/></g><defs><clipPath id="ba"><path fill="#fff" d="M0 0h23v23H0z"/></clipPath></defs></svg><svg width="33" height="33" fill="none" viewBox="-5 -5 33 33" id="whatsapp" x="66" y="66" xmlns="http://www.w3.org/2000/svg"><g clip-path="url(#ca)"><path d="M11.5 0C5.155 0 0 5.155 0 11.5c0 2.04.56 3.943 1.492 5.605L.02 22.364a.5.5 0 0 0 .601.62l5.485-1.359C7.717 22.486 9.546 23 11.5 23 17.845 23 23 17.845 23 11.5S17.845 0 11.5 0Zm0 1C17.305 1 22 5.695 22 11.5S17.305 22 11.5 22c-1.861 0-3.604-.485-5.12-1.333a.5.5 0 0 0-.363-.049l-4.804 1.19L2.5 17.214a.5.5 0 0 0-.05-.39A10.44 10.44 0 0 1 1 11.5C1 5.695 5.695 1 11.5 1ZM7.321 5.5c-.32 0-.778.12-1.154.524C5.941 6.268 5 7.184 5 8.797c0 1.68 1.166 3.13 1.307 3.317v.001a15.845 15.845 0 0 0 1.502 1.842c.902.95 2.17 2.047 3.744 2.718.724.308 1.296.495 1.73.63.802.253 1.533.214 2.082.134.411-.061.863-.258 1.31-.541.448-.284.886-.636 1.08-1.17.138-.384.209-.738.234-1.03.013-.146.015-.274.005-.393-.01-.12 0-.21-.11-.393-.233-.382-.497-.392-.772-.528a91.104 91.104 0 0 0-1.024-.496c-.436-.208-.814-.392-1.046-.475-.147-.053-.326-.129-.585-.1-.259.03-.514.216-.663.437-.141.209-.709.88-.882 1.076l-.056-.028c-.214-.106-.475-.196-.863-.4a7.144 7.144 0 0 1-1.402-.974v-.001c-.79-.695-1.342-1.567-1.517-1.86.012-.014-.001.002.024-.022v-.001c.179-.175.337-.385.47-.539.19-.218.273-.41.364-.59.18-.358.08-.752-.025-.959l-.125-.289c-.069-.162-.156-.373-.25-.598l-.52-1.248c-.147-.348-.345-.599-.604-.72-.259-.12-.488-.086-.497-.086a13.11 13.11 0 0 0-.59-.011Zm0 1c.193 0 .383.002.542.01.164.008.154.009.122-.006s.012-.02.105.201c.122.289.332.795.52 1.245l.251.603c.07.166.109.258.153.346v.002c.044.086.04.031.025.06-.105.21-.12.262-.226.385-.163.187-.329.396-.417.482-.076.076-.215.193-.301.423-.087.23-.046.546.092.782.186.314.795 1.307 1.743 2.14a8.173 8.173 0 0 0 1.596 1.11c.444.234.806.37.887.41.192.096.402.17.647.14a.973.973 0 0 0 .588-.33h.001c.179-.202.709-.808.963-1.18.011.003.008 0 .092.03v.002h.001c.039.013.522.23.953.435.431.205.869.419 1.01.49.206.1.303.167.328.167.002.044.004.092-.003.164a3.19 3.19 0 0 1-.178.777c-.053.145-.328.446-.673.665-.346.219-.767.373-.923.396-.47.07-1.026.095-1.637-.097a16.742 16.742 0 0 1-1.637-.597c-1.388-.592-2.567-1.6-3.41-2.486a14.858 14.858 0 0 1-.999-1.17c-.24-.311-.344-.473-.432-.588v-.001C6.949 11.305 6 9.985 6 8.797c0-1.258.584-1.751.9-2.092a.593.593 0 0 1 .421-.205Z" fill="#E4E4E4"/></g><defs><clipPath id="ca"><path fill="#fff" d="M0 0h23v23H0z"/></clipPath></defs></svg></svg>