<?xml version="1.0" encoding="utf-8"?><svg width="125" height="116" viewBox="0 0 125 116" xmlns="http://www.w3.org/2000/svg" xmlns:xlink="http://www.w3.org/1999/xlink"><svg width="73" height="64" viewBox="-5 -5 73 64" id="audit" xmlns="http://www.w3.org/2000/svg"><path d="M596.8 919.591h-1.156v-1.159a3.206 3.206 0 0 0-3.2-3.205h-10.881a3.2 3.2 0 0 0-3.2 3.205v1.159h-1.157a3.2 3.2 0 0 0-3.2 3.2v2.182a1.022 1.022 0 0 0 1.02 1.023h23.948a1.022 1.022 0 0 0 1.026-1.019V922.8a3.2 3.2 0 0 0-3.2-3.209Zm-16.4-1.159a1.159 1.159 0 0 1 1.157-1.159h10.885a1.159 1.159 0 0 1 1.157 1.159v1.159h-13.2v-1.159Zm17.553 5.522h-21.901V922.8a1.159 1.159 0 0 1 1.156-1.159H596.8a1.159 1.159 0 0 1 1.157 1.159v1.159Zm-21.907-26.381-.048.048a3.213 3.213 0 0 0 0 4.532 3.194 3.194 0 0 0 4.522 0l6.158-6.171a3.2 3.2 0 1 0-4.522-4.532l-.049.049-2.367-2.372a2.119 2.119 0 0 0-.534-2.079l-6.609-6.622a2.107 2.107 0 0 0-2.074-.536l-2.367-2.372.048-.048a3.2 3.2 0 1 0-4.522-4.532l-6.158 6.171a3.2 3.2 0 1 0 4.523 4.531l.048-.048 2.366 2.372a2.145 2.145 0 0 0-.082.584 2.1 2.1 0 0 0 .617 1.5l.274.274-2.116 2.12a3.2 3.2 0 0 0-.925 2.47l-24.3 24.35a3.2 3.2 0 1 0 4.522 4.532l24.3-24.35c.068 0 .135.009.2.009a3.182 3.182 0 0 0 2.261-.937l2.116-2.12.274.274a2.1 2.1 0 0 0 2.074.537Zm8.371-5.015a1.159 1.159 0 0 1 .817 1.978l-6.157 6.17a1.158 1.158 0 0 1-1.636-1.638l6.158-6.171a1.15 1.15 0 0 1 .824-.339Zm-6.928 3.569-2.18-2.185 3.175-3.181 2.18 2.184Zm-18.521-13.933a1.162 1.162 0 0 1 0-1.639l6.157-6.171a1.156 1.156 0 0 1 1.636 0 1.162 1.162 0 0 1 0 1.639l-6.158 6.171a1.155 1.155 0 0 1-1.629 0Zm7.745-3.23 2.18 2.185-3.175 3.182-2.18-2.185Zm-25.7 41.378a1.158 1.158 0 0 1-1.635-1.639l23.734-23.785.046.051 1.539 1.542c.016.017.034.031.051.046Zm26.763-25.277a1.155 1.155 0 0 1-1.635 0l-1.54-1.542a1.163 1.163 0 0 1 0-1.64l2.116-2.12 3.175 3.182Zm-1.333-8.469a.061.061 0 0 1-.019-.048.065.065 0 0 1 .019-.048l4.619-4.628a.068.068 0 0 1 .1 0l6.609 6.622a.07.07 0 0 1 0 .1l-4.619 4.628a.068.068 0 0 1-.1 0Z" transform="translate(-537 -872)" style="fill:#ffc222;fill-rule:evenodd"/></svg><svg width="26" height="26" viewBox="-5 -5 26 26" id="mail" x="73" y="64" xmlns="http://www.w3.org/2000/svg"><path fill="#ffc222" d="M13.333 0H2.667A2.675 2.675 0 0 0 0 2.667v10.666C0 14.801 1.2 16 2.667 16h10.666A2.674 2.674 0 0 0 16 13.333V2.667C16 1.2 14.8 0 13.333 0zm0 2c.125 0 .243.036.344.099L7.999 6.793 2.322 2.099A.648.648 0 0 1 2.666 2h10.666zM2.667 14a.654.654 0 0 1-.089-.006l3.525-4.89-.457-.457L2 12.293V2.744L8 10l6-7.256v9.549l-3.646-3.646-.457.457 3.525 4.89a.65.65 0 0 1-.088.006H2.668z"/></svg><svg width="26" height="26" viewBox="-5 -5 26 26" id="phone" x="99" y="90" xmlns="http://www.w3.org/2000/svg"><path fill="#ffc222" d="M11 10c-1 1-1 2-2 2s-2-1-3-2-2-2-2-3 1-1 2-2-2-4-3-4-3 3-3 3c0 2 2.055 6.055 4 8s6 4 8 4c0 0 3-2 3-3s-3-4-4-3z"/></svg></svg>